<?xml version="1.0" standalone="no"?>
<!DOCTYPE svg PUBLIC "-//W3C//DTD SVG 20010904//EN"
 "http://www.w3.org/TR/2001/REC-SVG-20010904/DTD/svg10.dtd">
<svg version="1.0" xmlns="http://www.w3.org/2000/svg"
 width="500.000000pt" height="500.000000pt" viewBox="0 0 500.000000 500.000000"
 preserveAspectRatio="xMidYMid meet">

<g transform="translate(0.000000,500.000000) scale(0.100000,-0.100000)"
fill="#000000" stroke="none">
<path d="M4365 4958 c-68 -54 -233 -134 -330 -158 -125 -32 -519 -67 -817 -72
-70 -1 -86 -3 -43 -5 469 -18 763 -43 875 -74 253 -70 476 -252 592 -484 36
-71 74 -181 88 -251 18 -95 39 -354 47 -557 3 -103 8 -185 11 -182 3 2 8 87
13 187 13 266 37 511 60 603 11 44 46 134 79 201 l60 121 0 357 0 356 -292 -1
-293 -1 -50 -40z"/>
<path d="M960 2534 l0 -1115 1068 4 c714 3 1105 8 1182 16 626 63 876 193 936
485 9 39 16 112 16 163 1 80 -2 98 -26 146 -33 68 -128 160 -212 204 -71 38
-230 93 -270 94 -22 0 -16 4 27 18 131 42 245 137 297 248 25 54 27 67 27 188
0 76 -6 153 -14 185 -51 208 -195 332 -466 400 -285 72 -442 80 -1592 80
l-973 0 0 -1116z m1881 543 c127 -30 178 -71 186 -151 8 -84 -47 -142 -165
-172 -57 -14 -134 -18 -514 -21 l-448 -5 0 187 0 187 438 -5 c345 -4 451 -8
503 -20z m18 -747 c110 -12 171 -33 206 -70 24 -25 30 -41 33 -93 3 -53 0 -67
-20 -97 -57 -84 -178 -100 -770 -100 l-408 0 0 185 0 185 438 0 c240 0 475 -5
521 -10z"/>
<path d="M247 1680 c-9 -224 -33 -528 -48 -613 -24 -134 -87 -285 -163 -392
l-36 -50 0 -312 0 -313 336 0 337 0 53 35 c80 53 189 102 279 125 98 25 329
47 670 64 242 12 250 13 118 15 -283 2 -682 38 -804 72 -302 84 -555 331 -649
634 -39 127 -63 358 -78 755 l-7 175 -8 -195z"/>
</g>
</svg>
